<svg width="32" height="2" viewBox="110 45 110 90" fill="none" xmlns="http://www.w3.org/2000/svg">
<rect width="326" height="162" fill="none"/>
<path d="M160.2 89.3H161.9V83.3H160.2C159.5 83.3 159.2 83.7 159.2 84.4V88.3C159.2 89 159.5 89.3 160.2 89.3ZM170.8 61.6V81.5H204.1C199.5 68.2 184.1 61.6 170.8 61.6ZM207.1 126H205.5C195.4 126 187.3 117.6 187.3 107.7C187.3 103.6 186.6 99.7 184.9 96C183.7 93.7 181.7 91.2 178.8 91.2H170.8V126H161.9V91.2H160.3C158.8 91.2 157.5 90 157.5 88.5V84.2C157.5 82.7 158.8 81.5 160.3 81.5H161.9V52.7H170.8C186.8 52.7 200.6 63 205.5 78.1V52.7H207.1V81.5H215V83.3H207.1V126ZM205.5 124.1V89.1C205.5 87.4 205.3 85.8 204.9 84.3C204.9 84 204.8 83.7 204.7 83.3H170.8V89.3H178.8C181.3 89.3 183.7 89.8 186 90.7C190.4 92.7 193.8 96.1 195.8 100.5C196.7 102.8 197.2 105.2 197.2 107.7C197.2 110 197.4 112.1 197.9 114C198.3 116 198.9 117.7 199.7 119.2C200.8 121.5 202.8 124.1 205.5 124.1Z" fill="#6366F1"/>
<path d="M152.2 52.7H163V126H152.2C141.7 125.8 131.7 121.5 124.8 113.5V126H115.9V52.7H124.8V89.8C124.8 105.4 134.7 124.3 152.2 124.3V52.7Z" fill="#1A1A2E"/>
</svg>
